# xmcd
#
# Track frame offsets: 
#        150
#        16250
#        34739
#        50798
#        67831
#        82521
#        98070
#        112790
#        129006
#        143499
#        158776
#        167484
#        184704
#        204773
#        229522
#        259174
#        272061
#        287329
#
# Disc length: 4014 seconds
#
# Revision: 0
# Processed by: cddbd v1.5.2PL0 Copyright (c) Steve Scherf et al.
# Submitted via: ExactAudioCopy v0.99pb4
#
DISCID=d10fac12
DTITLE=Various Artist - Piraten-Party
DYEAR=2006
DGENRE=Pop
TTITLE0=Der Pirat - Volker Rosin
TTITLE1=Seeraben-Rudi - Rudi, Koffer and Siebenstein
TTITLE2=Piratenlied - Benjamin Blümchen
TTITLE3=Piratenkapitän - Tom Lehel
TTITLE4=Zungenbrecher - Die Lollipops
TTITLE5=Piraten - Detlef Jöcker
TTITLE6=Urlaub auf Hawaii - Petterson und Findus
TTITLE7=Piratenfreunde - Baadingoo Beat
TTITLE8=Heute ist Piratenfest - Volker Rosin
TTITLE9=Wir Piratenkinder - Christian Berg
TTITLE10=Seeräuber Opa Fabian - Pippi Lotta Viktualia
TTITLE11=Wilde Piraten - Laura - Cool Kids Zita
TTITLE12=Piratengruss - Geraldino
TTITLE13=10 verwegene Piraten - Sunshine Kids
TTITLE14=Schön ist das Piratenleben - Rudi, Koffer and Siebenstein
TTITLE15=Komm' mit Pirat - Die Blindfische
TTITLE16=Wir Sind Piraten - Die Knallfrösche
TTITLE17=Rolli, der Seeräuber - Volker Rosin
EXTD=
EXTT0=
EXTT1=
EXTT2=
EXTT3=
EXTT4=
EXTT5=
EXTT6=
EXTT7=
EXTT8=
EXTT9=
EXTT10=
EXTT11=
EXTT12=
EXTT13=
EXTT14=
EXTT15=
EXTT16=
EXTT17=
PLAYORDER=
